<?xml version="1.0" encoding="UTF-8"?>
<svg preserveAspectRatio="none" viewBox="0 0 1180 577" version="1.1" xmlns="http://www.w3.org/2000/svg" xmlns:xlink="http://www.w3.org/1999/xlink">
    <path fill-opacity="0.3"  fill="#FFFFFF" d="M94.1707057,575 L28,575 L28,574.985597 L27.9453521,575.044418 L1.98439459,553.025647 L2.00591492,553 L2,553 L2,518.829294 C0.834807627,518.417458 0,517.306219 0,516 C0,514.521249 1.06990417,513.292387 2.47784498,513.045282 L2.51985479,63.9617832 C1.09124166,63.7319754 0,62.4934243 0,61 C0,59.6937812 0.834807627,58.5825421 2,58.1707057 L2,24 L2.00591492,24 L1.98439459,23.9743531 L27.9453521,1.95558166 L28,2.01440256 L28,2 L94.1707057,2 C94.5825421,0.834807627 95.6937812,0 97,0 C98.4963427,0 99.7368151,1.09551075 99.9631188,2.52823387 L1081.03688,2.52823387 C1081.26318,1.09551075 1082.50366,0 1084,0 C1085.30658,0 1086.41808,0.835275604 1086.82964,2.00097972 L1152.30063,2.03603745 L1152.30473,2.03131822 L1177.95257,23 L1178,23 L1178,23.0387765 L1178.00875,23.0459281 L1178,23.0563528 L1178,57.1707057 C1179.16519,57.5825421 1180,58.6937812 1180,60 C1180,61.4631643 1178.95253,62.6816794 1177.56656,62.9465778 L1177.56656,513.053422 C1178.95253,513.318321 1180,514.536836 1180,516 C1180,517.306219 1179.16519,518.417458 1178,518.829294 L1178,553 L1177.99409,553 L1178.01561,553.025647 L1152.05465,575.044418 L1152,574.985597 L1152,575 L1085.82929,575 C1085.41746,576.165192 1084.30622,577 1083,577 C1081.51015,577 1080.27396,575.913978 1080.03988,574.490401 C1080.04006,574.492249 1080.04024,574.494101 1080.04042,574.495956 L99.9591963,574.495956 C99.7228255,575.916802 98.4879099,577 97,577 C95.6937812,577 94.5825421,576.165192 94.1707057,575 Z M94.1707057,573 C94.5825421,571.834808 95.6937812,571 97,571 C98.4850857,571 99.7181365,572.07909 99.9578395,573.495956 L1080.04042,573.495956 C1080.03974,573.503557 1080.03908,573.511095 1080.03842,573.518569 C1080.26877,572.090587 1081.50702,571 1083,571 C1084.30622,571 1085.41746,571.834808 1085.82929,573 L1151.22951,573 L1176,552.109246 L1176,518.829294 C1174.83481,518.417458 1174,517.306219 1174,516 C1174,514.490341 1175.1151,513.241127 1176.56656,513.031081 L1176.56656,62.9689191 C1175.1151,62.7588732 1174,61.5096589 1174,60 C1174,58.6937812 1174.83481,57.5825421 1176,57.1707057 L1176,23.9863391 L1151.61736,4.03719781 L1086.82893,4.00102124 C1086.41681,5.16568012 1085.30584,6 1084,6 C1082.52338,6 1081.29593,4.93317425 1081.04636,3.52823387 L99.9536448,3.52823387 C99.7040745,4.93317425 98.4766225,6 97,6 C95.6937812,6 94.5825421,5.16519237 94.1707057,4 L28.7704874,4 L4,24.8907544 L4,58.1707057 C5.16519237,58.5825421 6,59.6937812 6,61 C6,62.4795617 4.92892294,63.70896 3.51984015,63.9551235 L3.47784567,513.037848 C4.90758718,513.266696 6,514.505775 6,516 C6,517.306219 5.16519237,518.417458 4,518.829294 L4,552.109246 L28.7704874,573 L94.1707057,573 Z" id="Combined-Shape"></path>
</svg>